<svg width="197" height="70" viewBox="0 0 197 70" fill="none" xmlns="http://www.w3.org/2000/svg">
<g clip-path="url(#clip0_4130_18859)">
<path d="M90.3307 50.4659C88.334 50.4659 86.5414 49.993 84.9535 49.0474C83.3666 48.0755 82.1114 46.7621 81.1896 45.1072C80.2679 43.4523 79.7939 41.5873 79.7686 39.5121V21.5447C79.7686 20.9405 79.948 20.4545 80.306 20.0868C80.6903 19.7191 81.1643 19.5352 81.7271 19.5352C82.3162 19.5352 82.7902 19.7191 83.149 20.0868C83.5071 20.4545 83.6865 20.9405 83.6865 21.5447V32.1833C84.5828 31.08 85.6577 30.2132 86.9129 29.5828C88.1927 28.926 89.5884 28.5977 91.0992 28.5977C92.968 28.5977 94.6455 29.0836 96.131 30.0555C97.6155 31.0012 98.781 32.3014 99.6257 33.9564C100.497 35.585 100.932 37.4368 100.932 39.5121C100.932 41.5873 100.458 43.4523 99.5106 45.1072C98.5889 46.7621 97.3337 48.0755 95.7467 49.0474C94.1589 49.993 92.3535 50.4659 90.3307 50.4659ZM90.3307 46.9197C91.6366 46.9197 92.8021 46.6044 93.8262 45.974C94.8504 45.3173 95.657 44.4242 96.2461 43.2947C96.8605 42.1651 97.1678 40.9043 97.1678 39.5121C97.1678 38.0935 96.8605 36.8327 96.2461 35.7295C95.657 34.6262 94.8504 33.7594 93.8262 33.1289C92.8021 32.4722 91.6366 32.1438 90.3307 32.1438C89.0509 32.1438 87.8854 32.4722 86.8359 33.1289C85.8118 33.7594 85.0052 34.6262 84.4161 35.7295C83.827 36.8327 83.5324 38.0935 83.5324 39.5121C83.5324 40.9043 83.827 42.1651 84.4161 43.2947C85.0052 44.4242 85.8118 45.3173 86.8359 45.974C87.8854 46.6044 89.0509 46.9197 90.3307 46.9197Z" fill="white"/>
<path d="M114.789 50.4659C112.715 50.4659 110.884 49.9868 109.296 49.0286C107.709 48.043 106.454 46.7016 105.532 45.0042C104.636 43.2795 104.188 41.3084 104.188 39.0909C104.188 36.8459 104.636 34.8749 105.532 33.1775C106.454 31.4528 107.709 30.1113 109.296 29.1531C110.884 28.1675 112.715 27.6748 114.789 27.6748C116.837 27.6748 118.655 28.1675 120.242 29.1531C121.83 30.1113 123.072 31.4528 123.968 33.1775C124.89 34.8749 125.351 36.8459 125.351 39.0909C125.351 41.3084 124.903 43.2795 124.006 45.0042C123.111 46.7016 121.868 48.043 120.281 49.0286C118.693 49.9868 116.863 50.4659 114.789 50.4659ZM114.789 46.77C116.12 46.77 117.298 46.4415 118.322 45.7844C119.347 45.1274 120.14 44.224 120.704 43.0741C121.293 41.9244 121.587 40.5966 121.587 39.0909C121.587 37.5851 121.293 36.2574 120.704 35.1076C120.14 33.9303 119.347 33.0132 118.322 32.3562C117.298 31.6991 116.12 31.3706 114.789 31.3706C113.457 31.3706 112.279 31.6991 111.255 32.3562C110.231 33.0132 109.425 33.9303 108.836 35.1076C108.246 36.2574 107.952 37.5851 107.952 39.0909C107.952 40.5966 108.246 41.9244 108.836 43.0741C109.425 44.224 110.231 45.1274 111.255 45.7844C112.279 46.4415 113.457 46.77 114.789 46.77Z" fill="white"/>
<path d="M146.2 50.4659C145.641 50.4659 145.172 50.2736 144.791 49.8889C144.436 49.4767 144.258 48.9685 144.258 48.364V38.2255C144.258 36.6594 143.992 35.3818 143.459 34.3927C142.925 33.4035 142.202 32.6754 141.288 32.2083C140.399 31.7138 139.371 31.4665 138.203 31.4665C137.137 31.4665 136.172 31.7 135.309 32.1671C134.446 32.6342 133.76 33.2661 133.253 34.0629C132.745 34.8323 132.491 35.7253 132.491 36.7418H130.092C130.092 35.0109 130.472 33.4722 131.234 32.1259C132.022 30.7521 133.087 29.6668 134.433 28.87C135.779 28.0732 137.289 27.6748 138.965 27.6748C140.716 27.6748 142.278 28.0869 143.649 28.9112C145.045 29.7081 146.137 30.8895 146.924 32.4556C147.736 34.0217 148.142 35.945 148.142 38.2255V48.364C148.142 48.9685 147.952 49.4767 147.572 49.8889C147.216 50.2736 146.758 50.4659 146.2 50.4659ZM130.549 50.4659C129.991 50.4659 129.521 50.2736 129.14 49.8889C128.785 49.4767 128.607 48.9685 128.607 48.364V29.9828C128.607 29.3508 128.785 28.8425 129.14 28.4579C129.521 28.0732 129.991 27.8809 130.549 27.8809C131.133 27.8809 131.603 28.0732 131.958 28.4579C132.314 28.8425 132.491 29.3508 132.491 29.9828V48.364C132.491 48.9685 132.314 49.4767 131.958 49.8889C131.603 50.2736 131.133 50.4659 130.549 50.4659Z" fill="white"/>
<path d="M160.575 50.4659C158.824 50.4659 157.249 50.0674 155.854 49.2707C154.483 48.4464 153.391 47.2513 152.579 45.6851C151.792 44.119 151.398 42.1957 151.398 39.9152V29.7767C151.398 29.1723 151.576 28.6777 151.931 28.293C152.312 27.8809 152.782 27.6748 153.34 27.6748C153.899 27.6748 154.356 27.8809 154.711 28.293C155.092 28.6777 155.282 29.1723 155.282 29.7767V39.9152C155.282 41.4539 155.548 42.7315 156.082 43.7481C156.615 44.7372 157.338 45.4791 158.252 45.9736C159.166 46.4407 160.195 46.6743 161.337 46.6743C162.428 46.6743 163.393 46.4407 164.231 45.9736C165.094 45.5065 165.779 44.8745 166.287 44.0778C166.795 43.281 167.049 42.388 167.049 41.3989H169.448C169.448 43.1024 169.054 44.6411 168.267 46.0149C167.505 47.3886 166.452 48.4739 165.107 49.2707C163.786 50.0674 162.276 50.4659 160.575 50.4659ZM168.991 50.2598C168.433 50.2598 167.963 50.0674 167.582 49.6828C167.227 49.2707 167.049 48.7623 167.049 48.1579V29.7767C167.049 29.1448 167.227 28.6365 167.582 28.2518C167.963 27.8672 168.433 27.6748 168.991 27.6748C169.575 27.6748 170.045 27.8672 170.399 28.2518C170.755 28.6365 170.933 29.1448 170.933 29.7767V48.1579C170.933 48.7623 170.755 49.2707 170.399 49.6828C170.045 50.0674 169.575 50.2598 168.991 50.2598Z" fill="white"/>
<path d="M177.69 49.6742L174.953 47.1743L188.636 28.4665L191.332 30.9664L177.69 49.6742ZM176.482 50.4659C175.221 50.4659 174.591 49.8131 174.591 48.5076C174.591 47.2021 175.221 46.5493 176.482 46.5493H190.205C191.466 46.5493 192.096 47.2021 192.096 48.5076C192.096 49.8131 191.466 50.4659 190.205 50.4659H176.482ZM176.08 31.5914C174.819 31.5914 174.189 30.9386 174.189 29.6331C174.189 28.3276 174.819 27.6748 176.08 27.6748H189.803C191.063 27.6748 191.694 28.3276 191.694 29.6331C191.694 30.9386 191.063 31.5914 189.803 31.5914H176.08Z" fill="white"/>
<path fill-rule="evenodd" clip-rule="evenodd" d="M0 17.4971L30.7712 0L61.54 17.4971V52.4912L30.7712 69.9882L0 52.4912V17.4971ZM30.7712 65.6139L57.6933 50.3029V19.683L30.7712 4.37427L3.84669 19.683V50.3029L30.7712 65.6139ZM31.1182 33.6805C30.2404 32.1113 28.9513 30.8029 27.3852 29.8917C25.787 28.9654 23.9621 28.487 22.1078 28.5083C20.5189 28.4901 18.9487 28.8477 17.5292 29.5511C16.1678 30.2201 14.9892 31.201 14.0923 32.4114V21.3089C14.0996 21.1127 14.0657 20.9172 13.9929 20.7344C13.92 20.5518 13.8096 20.3858 13.6687 20.247C13.5278 20.1082 13.3593 19.9995 13.1738 19.9277C12.9883 19.8559 12.7898 19.8226 12.5906 19.8298C12.3949 19.8225 12.2 19.856 12.0183 19.9279C11.8367 19.9999 11.6726 20.1087 11.5366 20.2474C11.401 20.3891 11.2954 20.5559 11.2259 20.7381C11.1563 20.9203 11.1243 21.1143 11.1315 21.3089V29.7961C11.1015 29.9071 11.0887 30.0219 11.0936 30.1367V39.0439C11.0702 40.928 11.5549 42.7844 12.4982 44.4237C13.4049 46.0144 14.7348 47.3315 16.3449 48.2333C18.0038 49.1631 19.8842 49.6406 21.7928 49.6167C23.7013 49.6407 25.5818 49.1632 27.2407 48.2333C28.8469 47.3301 30.174 46.0141 31.0803 44.426C32.0226 42.7864 32.5072 40.9302 32.4849 39.0462C32.5093 37.1712 32.0383 35.3221 31.1182 33.6805ZM28.579 43.0798C27.9198 44.2592 26.9492 45.241 25.7698 45.9214H25.7745C24.881 46.4322 23.8938 46.764 22.8697 46.8976C21.8455 47.0313 20.8047 46.9641 19.807 46.7C18.8093 46.4359 17.8745 45.9801 17.0563 45.3588C16.2382 44.7376 15.5529 43.963 15.0397 43.0798C14.3503 41.8443 13.9985 40.4536 14.0189 39.0439C14.0139 38.7277 14.0274 38.4114 14.0591 38.0967C14.0853 38.0363 14.0982 37.9711 14.097 37.9054C14.3004 36.0377 15.1981 34.3101 16.6173 33.0552C18.0331 31.7952 19.8851 31.1173 21.7928 31.1609C23.1886 31.1474 24.5624 31.5044 25.7698 32.1944C26.9497 32.8616 27.9214 33.8347 28.579 35.0079C29.2468 36.2515 29.596 37.637 29.596 39.0439C29.596 40.4508 29.2468 41.8363 28.579 43.0798ZM50.4518 48.1004C50.4518 48.9854 50.0034 49.4279 49.1064 49.4279H34.8188C33.9218 49.4279 33.4734 48.9854 33.4734 48.1004C33.4457 47.7634 33.5406 47.4277 33.741 47.1532L46.3636 31.3499H34.6742C33.7757 31.3499 33.3273 30.9082 33.3288 30.0248C33.3305 29.1414 33.7789 28.6989 34.6742 28.6974H48.9501C49.847 28.6974 50.2955 29.1398 50.2955 30.0248C50.3123 30.3782 50.2034 30.7264 49.9875 31.0093L37.4835 46.7753H49.1041C50.0026 46.7753 50.4518 47.217 50.4518 48.1004Z" fill="url(#paint0_linear_4130_18859)"/>
</g>
<defs>
<linearGradient id="paint0_linear_4130_18859" x1="63.8544" y1="34.4955" x2="-0.42852" y2="33.6121" gradientUnits="userSpaceOnUse">
<stop stop-color="#CE09FF"/>
<stop offset="1" stop-color="#FFA34E"/>
</linearGradient>
<clipPath id="clip0_4130_18859">
<rect width="192.096" height="70.0012" fill="white"/>
</clipPath>
</defs>
</svg>
