<svg width="169" height="60" viewBox="0 0 169 60" fill="none" xmlns="http://www.w3.org/2000/svg">
<g clip-path="url(#clip0_1784_11962)">
<path d="M77.4998 43.2558C75.7868 43.2558 74.2488 42.8504 72.8865 42.04C71.5249 41.2069 70.448 40.0811 69.6572 38.6627C68.8664 37.2442 68.4598 35.6456 68.438 33.867V18.4665C68.438 17.9487 68.5919 17.5322 68.8991 17.217C69.2288 16.9018 69.6354 16.7441 70.1183 16.7441C70.6237 16.7441 71.0304 16.9018 71.3383 17.217C71.6455 17.5322 71.7994 17.9487 71.7994 18.4665V27.5852C72.5684 26.6395 73.4906 25.8966 74.5675 25.3562C75.6655 24.7933 76.863 24.5119 78.1592 24.5119C79.7625 24.5119 81.2018 24.9284 82.4762 25.7615C83.7499 26.572 84.7498 27.6865 85.4745 29.105C86.2218 30.5009 86.595 32.0882 86.595 33.867C86.595 35.6456 86.1884 37.2442 85.3758 38.6627C84.585 40.0811 83.5081 41.2069 82.1465 42.04C80.7842 42.8504 79.2353 43.2558 77.4998 43.2558ZM77.4998 40.2162C78.6203 40.2162 79.6202 39.946 80.4989 39.4056C81.3775 38.8428 82.0695 38.0773 82.575 37.1091C83.1022 36.1409 83.3658 35.0602 83.3658 33.867C83.3658 32.6511 83.1022 31.5704 82.575 30.6248C82.0695 29.6791 81.3775 28.9361 80.4989 28.3957C79.6202 27.8328 78.6203 27.5514 77.4998 27.5514C76.4018 27.5514 75.4019 27.8328 74.5015 28.3957C73.6228 28.9361 72.9308 29.6791 72.4254 30.6248C71.92 31.5704 71.6672 32.6511 71.6672 33.867C71.6672 35.0602 71.92 36.1409 72.4254 37.1091C72.9308 38.0773 73.6228 38.8428 74.5015 39.4056C75.4019 39.946 76.4018 40.2162 77.4998 40.2162Z" fill="#0E0E0E"/>
<path d="M97.0869 43.2558C95.3071 43.2558 93.7364 42.8452 92.3741 42.0239C91.0125 41.1791 89.9356 40.0293 89.1448 38.5744C88.3758 37.0962 87.9917 35.4067 87.9917 33.506C87.9917 31.5818 88.3758 29.8923 89.1448 28.4374C89.9356 26.9591 91.0125 25.8094 92.3741 24.9881C93.7364 24.1433 95.3071 23.7209 97.0869 23.7209C98.8442 23.7209 100.404 24.1433 101.766 24.9881C103.128 25.8094 104.193 26.9591 104.962 28.4374C105.753 29.8923 106.149 31.5818 106.149 33.506C106.149 35.4067 105.764 37.0962 104.995 38.5744C104.227 40.0293 103.161 41.1791 101.799 42.0239C100.437 42.8452 98.866 43.2558 97.0869 43.2558ZM97.0869 40.088C98.2292 40.088 99.2393 39.8064 100.118 39.2432C100.997 38.6801 101.678 37.9057 102.161 36.9202C102.667 35.9347 102.919 34.7966 102.919 33.506C102.919 32.2154 102.667 31.0773 102.161 30.0918C101.678 29.0827 100.997 28.2966 100.118 27.7335C99.2393 27.1703 98.2292 26.8887 97.0869 26.8887C95.9439 26.8887 94.9338 27.1703 94.0552 27.7335C93.1765 28.2966 92.4845 29.0827 91.9791 30.0918C91.4737 31.0773 91.221 32.2154 91.221 33.506C91.221 34.7966 91.4737 35.9347 91.9791 36.9202C92.4845 37.9057 93.1765 38.6801 94.0552 39.2432C94.9338 39.8064 95.9439 40.088 97.0869 40.088Z" fill="#0E0E0E"/>
<path d="M125.433 43.2558C124.954 43.2558 124.551 43.091 124.224 42.7613C123.919 42.408 123.767 41.9724 123.767 41.4543V32.7642C123.767 31.4219 123.538 30.3268 123.081 29.479C122.623 28.6312 122.002 28.0071 121.218 27.6067C120.456 27.1829 119.574 26.9709 118.572 26.9709C117.657 26.9709 116.829 27.171 116.089 27.5714C115.348 27.9718 114.76 28.5134 114.325 29.1964C113.889 29.8558 113.672 30.6212 113.672 31.4925H111.613C111.613 30.0089 111.939 28.6901 112.593 27.5361C113.268 26.3586 114.183 25.4283 115.338 24.7454C116.492 24.0625 117.788 23.7209 119.226 23.7209C120.728 23.7209 122.068 24.0742 123.244 24.7807C124.442 25.4637 125.378 26.4764 126.054 27.8187C126.751 29.1611 127.099 30.8096 127.099 32.7642V41.4543C127.099 41.9724 126.936 42.408 126.61 42.7613C126.304 43.091 125.912 43.2558 125.433 43.2558ZM112.005 43.2558C111.526 43.2558 111.123 43.091 110.796 42.7613C110.492 42.408 110.339 41.9724 110.339 41.4543V25.6992C110.339 25.1575 110.492 24.7218 110.796 24.3921C111.123 24.0625 111.526 23.8976 112.005 23.8976C112.506 23.8976 112.909 24.0625 113.214 24.3921C113.519 24.7218 113.672 25.1575 113.672 25.6992V41.4543C113.672 41.9724 113.519 42.408 113.214 42.7613C112.909 43.091 112.506 43.2558 112.005 43.2558Z" fill="#0E0E0E"/>
<path d="M137.766 43.2558C136.263 43.2558 134.913 42.9143 133.715 42.2314C132.539 41.5249 131.602 40.5005 130.906 39.1581C130.23 37.8157 129.893 36.1672 129.893 34.2125V25.5225C129.893 25.0045 130.045 24.5805 130.35 24.2508C130.677 23.8976 131.08 23.7209 131.559 23.7209C132.038 23.7209 132.43 23.8976 132.735 24.2508C133.062 24.5805 133.225 25.0045 133.225 25.5225V34.2125C133.225 35.5314 133.453 36.6265 133.911 37.4978C134.368 38.3456 134.989 38.9815 135.773 39.4054C136.557 39.8057 137.44 40.0059 138.42 40.0059C139.356 40.0059 140.184 39.8057 140.903 39.4054C141.643 39.005 142.231 38.4633 142.667 37.7804C143.102 37.0975 143.32 36.3321 143.32 35.4842H145.379C145.379 36.9444 145.041 38.2632 144.366 39.4407C143.712 40.6182 142.808 41.5484 141.654 42.2314C140.521 42.9143 139.225 43.2558 137.766 43.2558ZM144.986 43.0792C144.507 43.0792 144.104 42.9143 143.777 42.5846C143.473 42.2314 143.32 41.7957 143.32 41.2776V25.5225C143.32 24.9809 143.473 24.5452 143.777 24.2155C144.104 23.8858 144.507 23.7209 144.986 23.7209C145.487 23.7209 145.89 23.8858 146.195 24.2155C146.5 24.5452 146.653 24.9809 146.653 25.5225V41.2776C146.653 41.7957 146.5 42.2314 146.195 42.5846C145.89 42.9143 145.487 43.0792 144.986 43.0792Z" fill="#0E0E0E"/>
<path d="M151.053 42.5773L148.705 40.4345L160.444 24.3995L162.757 26.5423L151.053 42.5773ZM150.017 43.2558C148.935 43.2558 148.394 42.6963 148.394 41.5774C148.394 40.4583 148.935 39.8988 150.017 39.8988H161.79C162.872 39.8988 163.413 40.4583 163.413 41.5774C163.413 42.6963 162.872 43.2558 161.79 43.2558H150.017ZM149.672 27.078C148.591 27.078 148.05 26.5185 148.05 25.3995C148.05 24.2805 148.591 23.7209 149.672 23.7209H161.446C162.527 23.7209 163.068 24.2805 163.068 25.3995C163.068 26.5185 162.527 27.078 161.446 27.078H149.672Z" fill="#0E0E0E"/>
<path fill-rule="evenodd" clip-rule="evenodd" d="M0 14.9972L26.4003 0L52.7985 14.9972V44.9917L26.4003 59.9889L0 44.9917V14.9972ZM26.4003 56.2396L49.4982 43.116V16.8709L26.4003 3.74931L3.30029 16.8709V43.116L26.4003 56.2396ZM26.698 28.8685C25.9449 27.5235 24.8389 26.402 23.4953 25.6211C22.1241 24.827 20.5584 24.417 18.9675 24.4353C17.6043 24.4196 16.2572 24.7262 15.0393 25.3291C13.8713 25.9025 12.8601 26.7432 12.0906 27.7807V18.2644C12.0968 18.0963 12.0678 17.9287 12.0053 17.7721C11.9427 17.6155 11.8481 17.4732 11.7271 17.3543C11.6062 17.2353 11.4617 17.1421 11.3025 17.0806C11.1433 17.0191 10.9731 16.9905 10.8021 16.9967C10.6343 16.9904 10.4671 17.0191 10.3112 17.0808C10.1554 17.1425 10.0146 17.2358 9.89785 17.3546C9.78155 17.4761 9.69098 17.619 9.63134 17.7752C9.57164 17.9314 9.54416 18.0977 9.55034 18.2644V25.5391C9.52461 25.6342 9.51364 25.7327 9.51784 25.8311V33.4656C9.4977 35.0805 9.91355 36.6718 10.7229 38.0768C11.5008 39.4403 12.6418 40.5692 14.0232 41.3422C15.4464 42.1391 17.0598 42.5484 18.6973 42.5279C20.3347 42.5485 21.9481 42.1392 23.3713 41.3422C24.7494 40.568 25.888 39.44 26.6655 38.0788C27.4739 36.6734 27.8897 35.0824 27.8706 33.4676C27.8915 31.8605 27.4875 30.2756 26.698 28.8685ZM24.5195 36.925C23.9539 37.9358 23.1212 38.7773 22.1093 39.3605H22.1134C21.3468 39.7984 20.4998 40.0828 19.6212 40.1973C18.7425 40.3119 17.8495 40.2543 16.9935 40.0279C16.1375 39.8016 15.3355 39.4109 14.6336 38.8784C13.9316 38.3459 13.3437 37.682 12.9034 36.925C12.3119 35.8659 12.0101 34.6739 12.0276 33.4656C12.0233 33.1946 12.0349 32.9235 12.0621 32.6538C12.0846 32.602 12.0957 32.5461 12.0946 32.4898C12.2691 30.8889 13.0393 29.4081 14.2569 28.3326C15.4716 27.2525 17.0605 26.6715 18.6973 26.7089C19.8948 26.6974 21.0734 27.0033 22.1093 27.5947C23.1217 28.1666 23.9553 29.0007 24.5195 30.0063C25.0925 31.0722 25.392 32.2598 25.392 33.4656C25.392 34.6715 25.0925 35.8591 24.5195 36.925ZM43.2854 41.2283C43.2854 41.9868 42.9007 42.366 42.1311 42.366H29.8729C29.1034 42.366 28.7187 41.9868 28.7187 41.2283C28.6949 40.9394 28.7763 40.6516 28.9483 40.4164L39.7779 26.8709H29.7489C28.9781 26.8709 28.5933 26.4923 28.5947 25.7351C28.5961 24.9779 28.9808 24.5987 29.7489 24.5974H41.997C42.7665 24.5974 43.1513 24.9766 43.1513 25.7351C43.1657 26.0381 43.0722 26.3365 42.8871 26.5789L32.1592 40.0925H42.1291C42.9 40.0925 43.2854 40.4711 43.2854 41.2283Z" fill="url(#paint0_linear_1784_11962)"/>
</g>
<defs>
<linearGradient id="paint0_linear_1784_11962" x1="54.7842" y1="29.5671" x2="-0.367631" y2="28.8085" gradientUnits="userSpaceOnUse">
<stop stop-color="#CE09FF"/>
<stop offset="1" stop-color="#FFA34E"/>
</linearGradient>
<clipPath id="clip0_1784_11962">
<rect width="163.413" height="60" fill="white"/>
</clipPath>
</defs>
</svg>
